<svg width="24" height="24" viewBox="0 0 24 24" fill="none" xmlns="http://www.w3.org/2000/svg">
<path d="M4.87552 20.9995H19.1245C19.5388 20.9995 19.8744 20.6639 19.8744 20.2496V14.9999C19.8744 14.5856 19.5388 14.25 19.1245 14.25H4.87552C4.46118 14.25 4.12558 14.5856 4.12558 14.9999V20.2496C4.12558 20.6639 4.46118 20.9995 4.87552 20.9995Z" fill="#F69A1B"/>
<path d="M8.0398 8.67014L7.36204 12.6233C7.25724 13.2338 7.90135 13.7028 8.4504 13.4135L12 11.5476L15.5496 13.4135C16.1029 13.7032 16.7421 13.2304 16.6379 12.6233L15.9601 8.67014L18.832 5.87097C19.2758 5.4383 19.0305 4.68147 18.4162 4.59185L14.4471 4.01533L12.6726 0.418879C12.3974 -0.137767 11.6026 -0.137579 11.3274 0.418879L9.55282 4.01533L5.58374 4.59185C4.97033 4.68138 4.72355 5.43774 5.16799 5.87097L8.0398 8.67014Z" fill="#F69A1B"/>
<path d="M22.6131 20.6247L23.9002 18.3721C24.1854 17.8733 23.8248 17.25 23.2492 17.25H21.6087C21.4792 17.25 21.3743 17.3549 21.3743 17.4844V20.2498C21.3743 21.4923 20.367 22.4996 19.1245 22.4996H17.109C16.9796 22.4996 16.8746 22.6046 16.8746 22.734V23.2496C16.8746 23.6638 17.2104 23.9995 17.6246 23.9995H23.2492C23.8238 23.9995 24.1859 23.3771 23.9002 22.8774L22.6131 20.6247Z" fill="#F69A1B"/>
<path d="M2.62569 20.2498V17.4844C2.62569 17.3549 2.52075 17.25 2.39134 17.25H0.750832C0.176234 17.25 -0.185942 17.8724 0.0997869 18.3721L1.38688 20.6247L0.0997869 22.8774C-0.185426 23.3762 0.175203 23.9995 0.750832 23.9995H6.37541C6.78962 23.9995 7.12536 23.6638 7.12536 23.2496V22.734C7.12536 22.6046 7.02041 22.4996 6.891 22.4996H4.87553C3.63296 22.4996 2.62569 21.4923 2.62569 20.2498Z" fill="#F69A1B"/>
</svg>
