<svg width="17" height="17" viewBox="0 0 17 17" fill="none" xmlns="http://www.w3.org/2000/svg">
<path d="M12.6625 16.505H12.6392C9.43779 16.4262 6.38275 15.1479 4.07919 12.9233C1.85379 10.6219 0.574767 7.56797 0.495759 4.3675C0.491044 3.91916 0.667075 3.4878 0.984188 3.17083L3.24586 0.910832C3.57127 0.585514 4.09877 0.585514 4.42419 0.910832L7.75752 4.24417C8.08284 4.56958 8.08284 5.09708 7.75752 5.4225L6.42752 6.75C6.6742 7.6716 7.12858 8.5245 7.75586 9.24333C8.47339 9.87083 9.3252 10.3255 10.2459 10.5725L11.5792 9.24417C11.9046 8.91885 12.4321 8.91885 12.7575 9.24417L16.0909 12.5775C16.4162 12.9029 16.4162 13.4304 16.0909 13.7558L13.8292 16.0167C13.5208 16.3283 13.1009 16.504 12.6625 16.505ZM3.83336 2.67917H3.82919L2.16252 4.34917C2.23048 7.11471 3.33446 9.75391 5.25586 11.7442C7.24621 13.6649 9.88489 14.7688 12.65 14.8375L14.3225 13.1667L12.1625 11.0125L11.085 12.0892C10.9309 12.245 10.7209 12.3329 10.5017 12.3333C10.4432 12.3334 10.3848 12.3272 10.3275 12.315C8.93888 12.0078 7.64951 11.3571 6.57752 10.4225C5.6429 9.35051 4.9922 8.06114 4.68502 6.6725C4.62707 6.39647 4.71268 6.10986 4.91252 5.91083L5.98919 4.83333L3.83336 2.67917Z" fill="#303B40"/>
</svg>
