<svg width="24" height="24" viewBox="0 0 24 24" fill="none" xmlns="http://www.w3.org/2000/svg">
<path d="M2.98332 17.5039L0.725998 19.7612C-0.242081 20.7293 -0.242081 22.3046 0.725998 23.2726C1.19511 23.7418 1.81859 23.9999 2.4818 23.9999C3.145 23.9999 3.76866 23.7418 4.23759 23.2726L6.49492 21.0155L2.98332 17.5039Z" fill="#F69A1B"/>
<path d="M13.9321 8.89697C13.9321 9.37524 14.3212 9.76434 14.7995 9.76434C15.2776 9.76434 15.6667 9.37524 15.6667 8.89697C15.6667 8.41888 15.2776 8.02979 14.7995 8.02979C14.3212 8.02979 13.9321 8.41888 13.9321 8.89697Z" fill="#F69A1B"/>
<path d="M21.301 2.69788C19.5613 0.958191 17.2482 0 14.7878 0C12.3274 0 10.0142 0.958191 8.27435 2.69788C4.85028 6.12213 4.6908 11.5935 7.79608 15.2084L6.99261 16.0117L5.73413 14.7532L3.97778 16.5095L7.48938 20.0211L9.24573 18.2648L7.98724 17.0063L8.79034 16.203C10.4592 17.6391 12.5632 18.4224 14.7876 18.4224C17.248 18.4224 19.5612 17.4642 21.301 15.7245C23.0407 13.9847 23.9989 11.6717 23.9989 9.2113C23.9989 6.75073 23.0407 4.43756 21.301 2.69788ZM19.7545 14.178C18.3853 15.5473 16.5864 16.2321 14.7878 16.2321C12.989 16.2321 11.1903 15.5473 9.82086 14.178C8.49426 12.8513 7.76367 11.0874 7.76367 9.2113C7.76367 7.33502 8.49426 5.57117 9.82086 4.24438C12.5596 1.50568 17.0158 1.50568 19.7545 4.24438C21.0813 5.57117 21.8119 7.33502 21.8119 9.2113C21.8119 11.0874 21.0813 12.8513 19.7545 14.178Z" fill="#F69A1B"/>
<path d="M18.7601 5.23901C17.6649 4.14386 16.2263 3.59619 14.7878 3.59619C13.3491 3.59619 11.9105 4.14386 10.8153 5.23901C9.75439 6.30011 9.16992 7.71075 9.16992 9.2113C9.16992 10.7119 9.75439 12.1227 10.8153 13.1838C13.0058 15.3741 16.5698 15.3741 18.7601 13.1838C19.8212 12.1227 20.4055 10.7119 20.4055 9.2113C20.4055 7.71075 19.8212 6.30011 18.7601 5.23901ZM17.9423 10.0212C17.9363 10.0111 17.6283 9.49677 17.0707 8.99359C17.02 10.2026 16.0208 11.1709 14.7995 11.1709C13.5844 11.1709 12.5889 10.2129 12.5286 9.01245C11.9722 9.51489 11.655 10.0239 11.649 10.034L10.4491 9.30011C10.5159 9.1908 12.1174 6.62347 14.7995 6.62347C17.5697 6.62347 19.095 9.20508 19.1585 9.31494L17.9423 10.0212Z" fill="#F69A1B"/>
</svg>
