<svg width="24" height="24" viewBox="0 0 24 24" fill="none" xmlns="http://www.w3.org/2000/svg">
<g clip-path="url(#clip0)">
<path fill-rule="evenodd" clip-rule="evenodd" d="M12.0001 17.1311C11.3205 17.1311 10.6622 17.0361 10.038 16.8589L11.9987 21.1277L13.9589 16.8598C13.3357 17.0364 12.6785 17.1311 12.0001 17.1311Z" fill="#F69A1B"/>
<path fill-rule="evenodd" clip-rule="evenodd" d="M2.46057 19.8424C2.28478 19.5163 2.19558 19.139 2.22193 18.7435L2.29819 17.6391L1.56858 17.5796C0.594379 19.1356 0.0261129 20.9417 0.00361295 22.8665C-0.0381058 23.2809 0.286785 23.6407 0.703175 23.6407L7.87257 23.6398C6.83714 22.9701 2.9288 20.711 2.46057 19.8424Z" fill="#F69A1B"/>
<path fill-rule="evenodd" clip-rule="evenodd" d="M21.6992 17.6389L21.7754 18.7433C21.8018 19.1387 21.7126 19.5161 21.5368 19.8422C21.3623 20.1659 21.101 20.4386 20.7816 20.6279L16.1263 23.6385L23.297 23.6376C23.6784 23.6414 23.999 23.3242 23.9973 22.9345C23.9876 20.984 23.4173 19.1536 22.4315 17.5791L21.6992 17.6389Z" fill="#F69A1B"/>
<path fill-rule="evenodd" clip-rule="evenodd" d="M11.1469 22.6302L8.08953 15.9737C7.66076 15.6956 7.26303 15.3734 6.90307 15.0134C6.07554 14.1859 5.44704 13.1589 5.09721 12.0127L0.324822 14.9151C-0.206084 15.2264 -0.0353188 16.0358 0.574619 16.0842L3.79432 16.3512L3.62267 18.8368C3.60602 19.0866 3.73723 19.3122 3.94137 19.428L10.2978 23.5387C10.5896 23.7283 10.9798 23.6453 11.1694 23.3535C11.2916 23.1653 11.3005 22.9363 11.2131 22.7465L11.1469 22.6302Z" fill="#F69A1B"/>
<path fill-rule="evenodd" clip-rule="evenodd" d="M20.3747 18.8368L20.203 16.3512L23.4205 15.9934C24.0304 15.9451 24.2207 15.1338 23.6898 14.8225L18.9026 12.0142C18.5527 13.1598 17.9243 14.1862 17.0971 15.0134C16.7361 15.3745 16.337 15.6976 15.9067 15.9763L12.8505 22.6302L12.7841 22.7466C12.6968 22.9363 12.7057 23.1655 12.828 23.3537C13.0175 23.6455 13.4077 23.7284 13.6995 23.5389L20.056 19.4281C20.2602 19.3123 20.3913 19.0867 20.3747 18.8368Z" fill="#F69A1B"/>
<path fill-rule="evenodd" clip-rule="evenodd" d="M12 15.725C15.1961 15.725 17.8084 13.1126 17.8084 9.91657V8.59375H6.19159V9.91657C6.19159 13.1126 8.80398 15.725 12 15.725Z" fill="#F69A1B"/>
<path fill-rule="evenodd" clip-rule="evenodd" d="M4.78127 7.20633C9.5938 7.20633 14.4063 7.20633 19.2188 7.20633C19.6071 7.20633 19.922 6.89152 19.922 6.50321C19.922 6.11489 19.6071 5.80008 19.2188 5.80008H17.984C17.5819 4.14468 17.2732 2.11095 16.134 0.971746C15.1163 -0.0460078 14.3841 0.446697 13.4812 1.05439C13.0549 1.34126 12.5642 1.67155 12.0021 1.67155C11.4551 1.67155 10.9785 1.33967 10.5629 1.05022C9.66205 0.422744 8.92869 -0.087961 7.86903 0.971699C6.69448 2.14625 6.34732 4.13413 5.99805 5.80013H4.78131C4.393 5.80013 4.07819 6.11494 4.07819 6.50325C4.07814 6.89152 4.39295 7.20633 4.78127 7.20633Z" fill="#F69A1B"/>
</g>
<defs>
<clipPath id="clip0">
<rect width="24" height="24" fill="white"/>
</clipPath>
</defs>
</svg>
