<svg width="22" height="24" viewBox="0 0 22 24" fill="none" xmlns="http://www.w3.org/2000/svg">
<path d="M10.9999 7.42773C8.47833 7.42773 6.427 9.47906 6.427 12.0004C6.427 14.522 8.47833 16.5733 10.9999 16.5733C13.5212 16.5733 15.5726 14.522 15.5726 12.0004C15.5726 9.47906 13.5212 7.42773 10.9999 7.42773ZM13.7148 11.1393L10.4388 14.4152C10.3013 14.5527 10.121 14.6216 9.9408 14.6216C9.76062 14.6216 9.58044 14.5529 9.44293 14.4152L8.19104 13.1633C7.91602 12.8885 7.91602 12.4426 8.19104 12.1676C8.46588 11.8926 8.91174 11.8926 9.18677 12.1676L9.9408 12.9216L12.7191 10.1436C12.9939 9.86853 13.4398 9.86853 13.7148 10.1436C13.9898 10.4184 13.9898 10.8643 13.7148 11.1393Z" fill="#F69A1B"/>
<path d="M21.1948 6.51181L21.194 6.49313C21.1836 6.2626 21.1766 6.01871 21.1724 5.74734C21.1528 4.42404 20.1009 3.32944 18.7774 3.25547C16.018 3.10148 13.8834 2.2017 12.0595 0.423934L12.0439 0.409102C11.449 -0.136367 10.5516 -0.136367 9.95651 0.409102L9.94094 0.423934C8.11704 2.2017 5.9824 3.10148 3.22301 3.25565C1.89971 3.32944 0.847586 4.42404 0.827994 5.74753C0.823966 6.01706 0.816825 6.26095 0.806388 6.49313L0.805289 6.53653C0.75164 9.3503 0.684989 12.8522 1.85649 16.0307C2.50066 17.7786 3.47624 19.298 4.75596 20.547C6.21348 21.9693 8.12253 23.0986 10.43 23.9031C10.5051 23.9293 10.5831 23.9505 10.6626 23.9665C10.7746 23.9888 10.8874 24 11.0002 24C11.113 24 11.226 23.9888 11.3379 23.9665C11.4173 23.9505 11.4959 23.9291 11.5713 23.9028C13.8761 23.0967 15.7831 21.967 17.2393 20.5448C18.5185 19.2955 19.4941 17.7757 20.1388 16.0274C21.3147 12.8394 21.2482 9.33089 21.1948 6.51181ZM10.9998 17.9815C7.70175 17.9815 5.01872 15.2985 5.01872 12.0004C5.01872 8.70229 7.70175 6.01926 10.9998 6.01926C14.2977 6.01926 16.981 8.70229 16.981 12.0004C16.981 15.2985 14.2977 17.9815 10.9998 17.9815Z" fill="#F69A1B"/>
</svg>
